<svg xmlns="http://www.w3.org/2000/svg" viewBox="0 0 268.53 307.56"><defs><style>.cls-1{fill:#f97316;}</style></defs><g id="Layer_2" data-name="Layer 2"><g id="Layer_1-2" data-name="Layer 1"><path class="cls-1" d="M57.06,307.56q-6.8-6.54-13.57-13.09c-9.69-9.39-19.43-18.74-29-28.21C4.68,256.62.11,244.66.08,231.12Q-.1,146.89,0,62.65C0,27.12,27.23,0,62.77,0l201,0c1.47,0,2.94.14,4.79.23-.37,1.6-.56,2.9-1,4.12C263.07,18,258.64,31.6,254,45.15c-4.76,13.91-13.94,20.41-28.54,20.42q-70.48.06-141,.07c-16.14,0-26.16,10-26.17,26.28q0,104.49,0,209v6.25Z"/><path class="cls-1" d="M230.28,114.44c-3.49,10.62-6.79,20.71-10.1,30.8-1.5,4.59-3.08,9.16-4.49,13.78-3.71,12.07-12.9,20.18-25.56,20.34-33.16.4-66.32.12-99.48.1a6,6,0,0,1-1.28-.43A22.15,22.15,0,0,1,89,175.9c0-14.5-.17-29,0-43.5.09-11.21,7-18.21,18.13-18.23q60.24-.11,120.48,0C228.16,114.2,228.82,114.31,230.28,114.44Z"/><path class="cls-1" d="M146.64,224.6c0,10.21.65,20.05-.18,29.76-.8,9.31-6.33,16.84-14.37,21.11-13.76,7.3-28.13,13.46-42.82,20.36V224.6Z"/></g></g></svg>